<?xml version="1.0" encoding="UTF-8" standalone="no"?>
<svg
   xmlns:dc="http://purl.org/dc/elements/1.1/"
   xmlns:cc="http://creativecommons.org/ns#"
   xmlns:rdf="http://www.w3.org/1999/02/22-rdf-syntax-ns#"
   xmlns:svg="http://www.w3.org/2000/svg"
   xmlns="http://www.w3.org/2000/svg"
   viewBox="0 0 255 65"
   height="66"
   width="255"
   version="1.1"><metadata
     id="metadata8"><rdf:RDF><cc:Work
         rdf:about=""><dc:format>image/svg+xml</dc:format><dc:type
           rdf:resource="http://purl.org/dc/dcmitype/StillImage" /></cc:Work></rdf:RDF></metadata><defs
     id="defs6" /><g
     transform="matrix(1.349,0,0,-1.33,0,65)"
     id="g10"><g
       transform="scale(0.133)"
       id="g12"><path
         id="path14"
         style="fill:#ffffff;fill-opacity:1;fill-rule:nonzero;stroke:none"
         d="m 196.902,27.6641 h 17.227 v 76.3279 h -17.227 v 23.856 h 49.297 V 106.91 h 0.531 c 8.481,15.899 24.379,24.649 42.137,24.649 32.867,0 44.266,-17.489 44.266,-48.7699 v -55.125 h 17.226 V 3.80469 H 281.98 V 27.6641 h 15.903 v 53.7968 c 0,12.7266 -7.422,24.9141 -21.735,24.9141 -19.082,0 -26.773,-17.4922 -26.773,-33.3906 V 27.6641 h 15.906 V 3.80469 H 196.902 V 27.6641" /><path
         id="path16"
         style="fill:#ffffff;fill-opacity:1;fill-rule:nonzero;stroke:none"
         d="m 431.91,28.9805 h 29.418 c 37.637,0 56.719,23.8593 56.719,61.4961 0,37.3714 -18.02,61.4924 -56.719,61.4924 H 431.91 Z m -58.308,0 h 21.73 V 151.969 h -21.73 v 25.176 h 94.617 c 17.23,0 88.527,-2.645 88.527,-86.4067 0,-57.7813 -36.578,-86.93361 -92.766,-86.93361 H 373.602 V 28.9805" /><path
         id="path18"
         style="fill:#ffffff;fill-opacity:1;fill-rule:nonzero;stroke:none"
         d="m 660.055,78.2891 c 0,17.7539 -9.012,29.4139 -27.293,29.4139 -17.766,0 -27.571,-12.7264 -27.571,-29.4139 z M 605.191,55.7578 c 0,-19.6172 11.399,-31.8047 31.016,-31.8047 12.188,0 20.938,5.0274 24.387,18.2813 h 33.125 C 687.887,12.293 663.504,0.09375 635.145,0.09375 c -43.469,0 -66.524,25.97655 -66.524,67.32425 0,38.957 26.5,64.141 65.731,64.141 29.941,0 54.062,-17.227 59.367,-47.7152 1.59,-9.8047 1.59,-19.3438 1.59,-28.086 h -90.118" /><path
         id="path20"
         style="fill:#ffffff;fill-opacity:1;fill-rule:nonzero;stroke:none"
         d="m 710.836,27.6641 h 17.227 v 76.3279 h -17.227 v 23.856 h 49.297 V 106.91 h 0.539 c 8.476,15.899 24.383,24.649 42.137,24.649 19.082,0 32.07,-5.567 41.347,-23.055 8.477,15.633 22.532,23.055 40.02,23.055 27.304,0 45.859,-11.395 46.652,-40.2934 V 27.6641 h 17.227 V 3.80469 H 879.676 V 27.6641 h 15.898 v 53.7968 c 0,13.5157 -5.304,24.9141 -21.203,24.9141 -19.082,0 -27.293,-15.3711 -27.293,-32.0703 V 27.6641 h 15.899 V 3.80469 H 795.914 V 27.6641 h 15.91 v 53.7968 c 0,12.7266 -7.422,24.9141 -21.738,24.9141 -19.082,0 -26.77,-17.4922 -26.77,-33.3906 V 27.6641 h 15.911 V 3.80469 H 710.836 V 27.6641" /><path
         id="path22"
         style="fill:#ffffff;fill-opacity:1;fill-rule:nonzero;stroke:none"
         d="m 1024.77,60.5234 c -18.03,0 -34.188,-2.9101 -34.188,-19.6093 0,-11.668 7.949,-16.961 18.818,-16.961 20.94,0 32.86,15.3711 32.33,36.5703 z m 17.49,-38.6914 h -0.53 C 1030.87,5.13281 1019.47,0.09375 1000.65,0.09375 c -23.056,0 -43.201,13.25395 -43.201,39.75785 0,40.8203 40.821,41.875 71.821,41.875 h 12.46 v 9.539 c 0,14.5824 -10.86,19.0934 -23.85,19.0934 -13.78,0 -22.267,-5.839 -23.321,-20.1481 h -33.137 c 2.121,35.5191 31.281,41.3481 60.428,41.3481 40.02,0 53.01,-16.7 53.01,-54.3363 V 27.6641 h 15.91 V 3.80469 h -48.51 V 21.832" /><path
         id="path24"
         style="fill:#ffffff;fill-opacity:1;fill-rule:nonzero;stroke:none"
         d="m 1110.51,27.6641 h 17.23 v 76.3279 h -17.23 v 23.856 h 49.3 V 106.91 h 0.54 c 8.47,15.899 24.37,24.649 42.14,24.649 32.86,0 44.25,-17.489 44.25,-48.7699 v -55.125 h 17.23 V 3.80469 h -68.38 V 27.6641 h 15.91 v 53.7968 c 0,12.7266 -7.42,24.9141 -21.74,24.9141 -19.08,0 -26.77,-17.4922 -26.77,-33.3906 V 27.6641 h 15.9 V 3.80469 h -68.38 V 27.6641" /><path
         id="path26"
         style="fill:#ffffff;fill-opacity:1;fill-rule:nonzero;stroke:none"
         d="m 1371.08,67.6836 c 0,20.4102 -9.01,38.6914 -30.75,38.6914 -22.53,0 -29.42,-20.1367 -29.42,-40.5469 0,-26.7695 11.13,-40.5586 26.24,-40.5586 26.51,0 33.93,16.1719 33.93,42.4141 z m 33.13,-40.0195 h 17.22 V 3.80469 H 1372.4 V 24.4805 h -0.53 c -11.13,-17.49222 -22,-24.38675 -43.99,-24.38675 -36.06,0 -53.55,30.48045 -53.55,63.87895 0,45.5863 23.33,67.5863 55.67,67.5863 20.93,0 32.59,-10.079 38.42,-22 h 0.53 V 157 h -17.22 v 23.855 h 52.48 V 27.6641" /><path
         id="path28"
         style="fill:#ffffff;fill-opacity:1;fill-rule:nonzero;stroke:none"
         d="m 92.7695,179.996 c -28.5351,0 -53.9218,-13.32 -70.4101,-34.031 1.1328,-0.43 2.2812,-0.684 3.4101,-1.231 l 33.5039,-16.261 c 9.0079,7.851 20.6368,12.773 33.4961,12.773 28.2575,0 51.2505,-22.988 51.2505,-51.2499 0,-28.25 -22.993,-51.25 -51.2505,-51.25 -12.8593,0 -24.4882,4.9336 -33.4922,12.7852 L 25.7695,35.2695 c -1.1289,-0.5468 -2.2773,-0.8086 -3.4101,-1.2304 16.4883,-20.7227 41.875,-34.04300625 70.4101,-34.04300625 49.7075,0 90.0005,40.30470625 90.0005,90.00000625 0,49.7069 -40.293,89.9999 -90.0005,89.9999" /><path
         id="path30"
         style="fill:#ffffff;fill-opacity:1;fill-rule:nonzero;stroke:none"
         d="M 17.0391,126.734 C 7.66797,131.285 0,126.48 0,116.063 V 63.9336 C 0,53.5234 7.66797,48.7188 17.0391,53.2695 l 58.6953,28.4649 c 9.3711,4.5508 9.3711,11.9844 0,16.5351 L 17.0391,126.734" /><path
         id="path32"
         style="fill:#ffffff;fill-opacity:1;fill-rule:nonzero;stroke:none"
         d="m 180.656,324.637 h -8.254 v -26.321 h 8.856 c 9.328,0 17.465,1.672 17.465,12.922 0,13.516 -9.094,13.399 -18.067,13.399" /><path
         id="path34"
         style="fill:#ffffff;fill-opacity:1;fill-rule:nonzero;stroke:none"
         d="m 398.117,324.637 h -9.816 v -66.875 h -21.766 l -31.828,60.41 h -0.234 v -49.043 h 9.804 v -11.367 h -34.57 v 11.367 h 9.813 v 55.508 h -9.813 v 11.367 h 33.258 l 30.148,-58.145 h 0.239 v 46.778 h -9.813 v 11.367 h 34.578 z M 295.504,312.547 H 281.75 v 12.09 h -30.988 v -21.301 h 11.847 v 10.656 h 12.559 v -31.945 h -12.559 v 10.527 h -11.847 v -23.445 h 30.988 v 14.238 h 13.754 v -25.605 h -71.059 v 11.367 h 9.809 v 55.508 h -9.809 v 11.367 h 71.059 z M 187.355,286.949 h -14.953 v -17.82 h 12.559 v -11.367 h -39.832 v 11.367 h 10.766 v 55.508 h -10.766 v 11.367 h 42.226 c 12.325,0 27.875,-2.402 27.875,-23.926 0,-20.098 -12.085,-25.129 -27.875,-25.129 z M 96.3672,256.082 c -26.4336,0 -41.2695,17.227 -41.2695,40.801 0,23.562 14.8359,40.789 41.2695,40.789 26.4418,0 41.2778,-17.227 41.2778,-40.789 0,-23.574 -14.836,-40.801 -41.2778,-40.801 z M 414.258,368.875 H 38.957 c -20.9218,0 -38.046844,-17.121 -38.046844,-38.047 v -67.91 C 0.910156,242 18.0352,224.879 38.957,224.879 h 375.301 c 20.93,0 38.047,17.121 38.047,38.039 v 67.91 c 0,20.926 -17.117,38.047 -38.047,38.047" /><path
         id="path36"
         style="fill:#ffffff;fill-opacity:1;fill-rule:nonzero;stroke:none"
         d="m 96.3672,326.305 c -16.8633,0 -23.8008,-12.676 -23.8008,-29.422 0,-16.75 6.9375,-29.434 23.8008,-29.434 16.8708,0 23.8088,12.684 23.8088,29.434 0,16.746 -6.938,29.422 -23.8088,29.422" /></g></g></svg>